<svg width="200" height="91" viewBox="0 0 200 91" fill="none" xmlns="http://www.w3.org/2000/svg">
<g clip-path="url(#clip0_45_2)">
<path d="M13.0285 64.9351H5.04932V19.3662H13.0285V38.1922H33.2259V19.3662H41.2052V64.9351H33.2259V45.6104H13.0285V64.9351ZM63.9701 65.7454C54.8065 65.7454 48.3857 59.0753 48.3857 49.5377C48.3857 39.8753 54.6818 33.2052 63.7207 33.2052C72.9467 33.2052 78.8065 39.3766 78.8065 48.9766V51.2831L55.6168 51.3455C56.1779 56.7688 59.0454 59.5117 64.0948 59.5117C68.2714 59.5117 71.0143 57.8909 71.887 54.961H78.9311C77.622 61.6935 72.0117 65.7454 63.9701 65.7454ZM63.7831 39.439C59.2948 39.439 56.5519 41.8701 55.8039 46.4831H71.2636C71.2636 42.2442 68.3337 39.439 63.7831 39.439ZM93.7524 65.7454C87.207 65.7454 83.2174 61.9429 83.2174 56.1455C83.2174 50.4727 87.3316 46.9195 94.6252 46.3584L103.851 45.6727V44.987C103.851 40.8104 101.358 39.1273 97.4927 39.1273C93.0044 39.1273 90.5109 40.9974 90.5109 44.239H84.0278C84.0278 37.5688 89.5135 33.2052 97.8667 33.2052C106.158 33.2052 111.269 37.6935 111.269 46.2338V64.9351H104.599L104.038 60.3844C102.729 63.5636 98.5524 65.7454 93.7524 65.7454ZM96.2459 60.0104C100.921 60.0104 103.913 57.2052 103.913 52.4675V50.8468L97.4927 51.3455C92.755 51.7818 90.9472 53.3403 90.9472 55.8338C90.9472 58.639 92.8174 60.0104 96.2459 60.0104ZM126.408 64.9351H118.865V18.5558H126.408V64.9351ZM144.859 64.9351H137.253V40.4987H131.331V34.1403H137.253V24.5403H144.859V34.1403H150.843V40.4987H144.859V64.9351ZM163.176 64.9351H155.571V18.5558H163.238V38.1299C165.171 35.1377 168.786 33.2052 173.212 33.2052C180.818 33.2052 184.807 38.0052 184.807 45.9844V64.9351H177.202V47.7922C177.202 42.6182 174.646 40.1247 170.781 40.1247C165.981 40.1247 163.176 43.4909 163.176 48.1039V64.9351Z" fill="white"/>
<path d="M192.208 15.5844C187.91 15.5844 184.416 19.0817 184.416 23.3774C184.416 27.6761 187.91 31.1704 192.208 31.1704C196.503 31.1704 200 27.6761 200 23.3774C200 19.0817 196.503 15.5844 192.208 15.5844ZM196.999 24.3328C196.999 24.4155 196.966 24.4947 196.908 24.5532C196.85 24.6117 196.77 24.6445 196.688 24.6446H193.473V27.859C193.473 27.9 193.465 27.9405 193.45 27.9784C193.434 28.0161 193.411 28.0506 193.382 28.0795C193.353 28.1086 193.319 28.1314 193.281 28.147C193.243 28.1629 193.203 28.1709 193.162 28.1706H191.252C191.211 28.1709 191.171 28.1629 191.133 28.1473C191.095 28.1314 191.061 28.1086 191.032 28.0797C191.003 28.0506 190.98 28.0164 190.964 27.9787C190.949 27.9408 190.941 27.9003 190.941 27.8592V24.6446H187.727C187.686 24.6446 187.645 24.6366 187.607 24.6209C187.57 24.6052 187.535 24.5823 187.506 24.5533C187.477 24.5244 187.454 24.49 187.439 24.4522C187.423 24.4143 187.415 24.3738 187.415 24.3328V22.4234C187.415 22.2513 187.554 22.1116 187.727 22.1116H190.941V18.8973C190.941 18.7252 191.08 18.5855 191.252 18.5855H193.162C193.334 18.5855 193.473 18.7252 193.473 18.897L193.506 22.0779L196.687 22.1116C196.86 22.1116 196.999 22.2513 196.999 22.4234V24.3328Z" fill="#3730A3"/>
<path d="M14.3506 85.7143H11.4026V76.3896H14.3506C17.3247 76.3896 19.039 78.2857 19.039 81.013C19.039 83.7013 17.2597 85.7143 14.3506 85.7143ZM12.8312 77.6234V84.4805H14.2857C16.4286 84.4805 17.5844 83.1559 17.5844 81.013C17.5844 78.9091 16.4415 77.6234 14.2857 77.6234H12.8312ZM25.2744 77.2338C25.2744 77.7273 24.8847 78.1039 24.3263 78.1039C23.7679 78.1039 23.3653 77.7273 23.3653 77.2338C23.3653 76.7273 23.7679 76.3636 24.3263 76.3636C24.8847 76.3636 25.2744 76.7273 25.2744 77.2338ZM24.9886 85.7143H23.677V78.8312H24.9886V85.7143ZM32.8096 88.3636C31.0044 88.3636 29.8356 87.4026 29.7577 85.8442H31.0304C31.1083 86.8052 31.7317 87.3247 32.7966 87.3247C33.9784 87.3247 34.6018 86.6883 34.6018 85.5065V84.2597C34.2122 85.0909 33.433 85.5714 32.4979 85.5714C30.7836 85.5714 29.5628 84.1559 29.5628 82.1299C29.5628 80.0779 30.7317 78.7013 32.459 78.7013C33.446 78.7013 34.2252 79.1818 34.6927 80.052V78.8312H35.9135V85.4805C35.9135 87.2857 34.7577 88.3636 32.8096 88.3636ZM30.8875 82.1299C30.8875 83.5585 31.5888 84.4286 32.7317 84.4286C33.8486 84.4286 34.6018 83.5325 34.6018 82.1688C34.6018 80.7403 33.8615 79.8312 32.7317 79.8312C31.6018 79.8312 30.8875 80.7143 30.8875 82.1299ZM42.5735 77.2338C42.5735 77.7273 42.1839 78.1039 41.6254 78.1039C41.067 78.1039 40.6644 77.7273 40.6644 77.2338C40.6644 76.7273 41.067 76.3636 41.6254 76.3636C42.1839 76.3636 42.5735 76.7273 42.5735 77.2338ZM42.2878 85.7143H40.9761V78.8312H42.2878V85.7143ZM51.2384 84.4416V85.5974C50.8358 85.7792 50.4852 85.8442 50.0696 85.8442C48.7969 85.8442 47.9138 85.1559 47.9138 83.6364V79.9481H46.3943V78.8312H47.9138V76.7922H49.2254V78.8312H51.3034V79.9481H49.2254V83.3377C49.2254 84.2857 49.68 84.6234 50.3813 84.6234C50.693 84.6234 50.9657 84.5714 51.2384 84.4416ZM59.9709 85.7143V84.6494C59.5423 85.4156 58.7761 85.8442 57.7631 85.8442C56.3345 85.8442 55.3995 85.026 55.3995 83.7662C55.3995 82.4156 56.4774 81.7143 58.5293 81.7143C58.9319 81.7143 59.2566 81.7273 59.8151 81.7922V81.2857C59.8151 80.2987 59.2826 79.7403 58.3735 79.7403C57.4125 79.7403 56.828 80.3117 56.7891 81.2727H55.5943C55.6592 79.7273 56.7631 78.7013 58.3735 78.7013C60.0748 78.7013 61.0618 79.6623 61.0618 81.2987V85.7143H59.9709ZM56.6462 83.7273C56.6462 84.4416 57.1787 84.9091 58.0228 84.9091C59.1267 84.9091 59.8151 84.2208 59.8151 83.1688V82.6104C59.3086 82.5455 58.9449 82.5325 58.6073 82.5325C57.2956 82.5325 56.6462 82.9221 56.6462 83.7273ZM67.387 85.7143H66.0623V76.3896H67.387V85.7143ZM79.9475 85.7143H78.519V76.3896H79.9475V80.2857H84.6748V76.3896H86.1034V85.7143H84.6748V81.5325H79.9475V85.7143ZM94.1065 85.8442C92.1195 85.8442 90.7818 84.4026 90.7818 82.2338C90.7818 80.1948 92.1714 78.7013 94.0675 78.7013C96.1195 78.7013 97.4831 80.3636 97.2493 82.5974H92.1195C92.2234 84 92.9247 84.8182 94.0805 84.8182C95.0545 84.8182 95.7299 84.2857 95.9506 83.3896H97.2493C96.9117 84.9221 95.7299 85.8442 94.1065 85.8442ZM94.0416 79.6883C92.9896 79.6883 92.2753 80.4416 92.1325 81.7273H95.8597C95.7948 80.4546 95.1065 79.6883 94.0416 79.6883ZM106.059 85.7143V84.6494C105.631 85.4156 104.865 85.8442 103.852 85.8442C102.423 85.8442 101.488 85.026 101.488 83.7662C101.488 82.4156 102.566 81.7143 104.618 81.7143C105.021 81.7143 105.345 81.7273 105.904 81.7922V81.2857C105.904 80.2987 105.371 79.7403 104.462 79.7403C103.501 79.7403 102.917 80.3117 102.878 81.2727H101.683C101.748 79.7273 102.852 78.7013 104.462 78.7013C106.163 78.7013 107.15 79.6623 107.15 81.2987V85.7143H106.059ZM102.735 83.7273C102.735 84.4416 103.267 84.9091 104.111 84.9091C105.215 84.9091 105.904 84.2208 105.904 83.1688V82.6104C105.397 82.5455 105.033 82.5325 104.696 82.5325C103.384 82.5325 102.735 82.9221 102.735 83.7273ZM113.476 85.7143H112.151V76.3896H113.476V85.7143ZM122.426 84.4416V85.5974C122.024 85.7792 121.673 85.8442 121.257 85.8442C119.985 85.8442 119.102 85.1559 119.102 83.6364V79.9481H117.582V78.8312H119.102V76.7922H120.413V78.8312H122.491V79.9481H120.413V83.3377C120.413 84.2857 120.868 84.6234 121.569 84.6234C121.881 84.6234 122.154 84.5714 122.426 84.4416ZM128.301 81.8312V85.7143H126.99V76.3896H128.301V79.9351C128.756 79.1948 129.457 78.7013 130.405 78.7013C131.821 78.7013 132.756 79.6104 132.756 81.2598V85.7143H131.444V81.7013C131.444 80.5195 130.925 79.8572 129.951 79.8572C129.055 79.8572 128.301 80.6104 128.301 81.8312ZM140.459 85.8572C138.576 85.8572 137.251 84.3766 137.251 82.2727C137.251 80.1948 138.602 78.7013 140.459 78.7013C142.16 78.7013 143.394 79.8312 143.641 81.6234H142.264C142.121 80.5195 141.433 79.8572 140.472 79.8572C139.342 79.8572 138.602 80.8182 138.602 82.2727C138.602 83.7403 139.342 84.6883 140.472 84.6883C141.446 84.6883 142.121 84.039 142.277 82.9221H143.641C143.407 84.7403 142.186 85.8572 140.459 85.8572ZM152.377 85.7143V84.6494C151.948 85.4156 151.182 85.8442 150.169 85.8442C148.74 85.8442 147.805 85.026 147.805 83.7662C147.805 82.4156 148.883 81.7143 150.935 81.7143C151.338 81.7143 151.662 81.7273 152.221 81.7922V81.2857C152.221 80.2987 151.688 79.7403 150.779 79.7403C149.818 79.7403 149.234 80.3117 149.195 81.2727H148C148.065 79.7273 149.169 78.7013 150.779 78.7013C152.481 78.7013 153.468 79.6623 153.468 81.2987V85.7143H152.377ZM149.052 83.7273C149.052 84.4416 149.584 84.9091 150.429 84.9091C151.532 84.9091 152.221 84.2208 152.221 83.1688V82.6104C151.714 82.5455 151.351 82.5325 151.013 82.5325C149.701 82.5325 149.052 82.9221 149.052 83.7273ZM159.78 82.1948V85.7143H158.468V78.8312H159.689V80.2857C160.169 79.3377 161.208 78.7403 162.338 78.7403V80.1039C160.858 80.026 159.78 80.6753 159.78 82.1948ZM169.429 85.8442C167.442 85.8442 166.104 84.4026 166.104 82.2338C166.104 80.1948 167.493 78.7013 169.39 78.7013C171.442 78.7013 172.805 80.3636 172.571 82.5974H167.442C167.545 84 168.247 84.8182 169.403 84.8182C170.377 84.8182 171.052 84.2857 171.273 83.3896H172.571C172.234 84.9221 171.052 85.8442 169.429 85.8442ZM169.364 79.6883C168.312 79.6883 167.597 80.4416 167.455 81.7273H171.182C171.117 80.4546 170.429 79.6883 169.364 79.6883Z" fill="#6366F1"/>
</g>
<defs>
<clipPath id="clip0_45_2">
<rect width="200" height="90.9091" fill="white"/>
</clipPath>
</defs>
</svg>
